<svg width="41" height="40" viewBox="0 0 41 40" fill="none" xmlns="http://www.w3.org/2000/svg">
<g id="carbon:notification">
<path id="Vector" d="M36.3838 24.1162L33 20.7325V16.25C32.9961 13.1523 31.8438 10.1661 29.7658 7.86873C27.6878 5.57139 24.8318 4.12617 21.75 3.8125V1.25H19.25V3.8125C16.1682 4.12617 13.3122 5.57139 11.2342 7.86873C9.15622 10.1661 8.00388 13.1523 8 16.25V20.7325L4.61625 24.1162C4.38181 24.3506 4.25007 24.6685 4.25 25V28.75C4.25 29.0815 4.3817 29.3995 4.61612 29.6339C4.85054 29.8683 5.16848 30 5.5 30H14.25V30.9712C14.2228 32.557 14.7818 34.0971 15.8197 35.2963C16.8577 36.4955 18.3017 37.2695 19.875 37.47C20.744 37.5562 21.6214 37.4595 22.4507 37.1862C23.2801 36.913 24.0431 36.4691 24.6907 35.8833C25.3382 35.2974 25.856 34.5825 26.2106 33.7846C26.5653 32.9866 26.749 32.1232 26.75 31.25V30H35.5C35.8315 30 36.1495 29.8683 36.3839 29.6339C36.6183 29.3995 36.75 29.0815 36.75 28.75V25C36.7499 24.6685 36.6182 24.3506 36.3838 24.1162ZM24.25 31.25C24.25 32.2446 23.8549 33.1984 23.1517 33.9016C22.4484 34.6049 21.4946 35 20.5 35C19.5054 35 18.5516 34.6049 17.8483 33.9016C17.1451 33.1984 16.75 32.2446 16.75 31.25V30H24.25V31.25ZM34.25 27.5H6.75V25.5175L10.1337 22.1337C10.3682 21.8994 10.4999 21.5815 10.5 21.25V16.25C10.5 13.5978 11.5536 11.0543 13.4289 9.17893C15.3043 7.30357 17.8478 6.25 20.5 6.25C23.1522 6.25 25.6957 7.30357 27.5711 9.17893C29.4464 11.0543 30.5 13.5978 30.5 16.25V21.25C30.5001 21.5815 30.6318 21.8994 30.8662 22.1337L34.25 25.5175V27.5Z" fill="#FBFBFB"/>
</g>
</svg>
